<svg width="237" height="103" viewBox="0 0 237 103" fill="none" xmlns="http://www.w3.org/2000/svg">
<path d="M85.1813 77.1941C84.7653 77.9481 84.1933 78.5374 83.4653 78.9621C82.7459 79.3781 81.9313 79.5861 81.0213 79.5861C80.3366 79.5861 79.6996 79.4648 79.1103 79.2221C78.5296 78.9708 78.0226 78.6198 77.5893 78.1691C77.1559 77.7184 76.8136 77.1768 76.5623 76.5441C76.3196 75.9114 76.1983 75.2138 76.1983 74.4511C76.1983 73.6884 76.3196 72.9908 76.5623 72.3581C76.8136 71.7254 77.1559 71.1838 77.5893 70.7331C78.0226 70.2824 78.5296 69.9358 79.1103 69.6931C79.6996 69.4418 80.3366 69.3161 81.0213 69.3161C81.8966 69.3161 82.6853 69.5111 83.3873 69.9011C84.0979 70.2911 84.6656 70.8371 85.0903 71.5391L84.3103 72.0461C83.9636 71.4568 83.4999 70.9931 82.9193 70.6551C82.3473 70.3171 81.7146 70.1481 81.0213 70.1481C80.4839 70.1481 79.9813 70.2521 79.5133 70.4601C79.0453 70.6594 78.6336 70.9498 78.2783 71.3311C77.9316 71.7038 77.6586 72.1544 77.4593 72.6831C77.2599 73.2118 77.1603 73.8011 77.1603 74.4511C77.1603 75.1011 77.2599 75.6904 77.4593 76.2191C77.6586 76.7478 77.9316 77.2028 78.2783 77.5841C78.6336 77.9568 79.0453 78.2471 79.5133 78.4551C79.9813 78.6544 80.4839 78.7541 81.0213 78.7541C81.7579 78.7541 82.4253 78.5764 83.0233 78.2211C83.6213 77.8571 84.0936 77.3371 84.4403 76.6611L85.1813 77.1941ZM98.916 73.7751H104.532V69.5761H105.494V79.3261H104.532V74.6071H98.916V79.3261H97.954V69.5761H98.916V73.7751ZM119.793 79.3261H118.831V69.5761H119.793V79.3261ZM134.094 73.7751H139.71V69.5761H140.672V79.3261H139.71V74.6071H134.094V79.3261H133.132V69.5761H134.094V73.7751ZM153.359 74.4511C153.359 73.6884 153.48 72.9908 153.723 72.3581C153.974 71.7254 154.312 71.1838 154.737 70.7331C155.17 70.2824 155.677 69.9358 156.258 69.6931C156.847 69.4418 157.484 69.3161 158.169 69.3161C158.853 69.3161 159.486 69.4418 160.067 69.6931C160.656 69.9358 161.163 70.2824 161.588 70.7331C162.021 71.1838 162.359 71.7254 162.602 72.3581C162.853 72.9908 162.979 73.6884 162.979 74.4511C162.979 75.2138 162.853 75.9114 162.602 76.5441C162.359 77.1768 162.021 77.7184 161.588 78.1691C161.163 78.6198 160.656 78.9708 160.067 79.2221C159.486 79.4648 158.853 79.5861 158.169 79.5861C157.484 79.5861 156.847 79.4648 156.258 79.2221C155.677 78.9708 155.17 78.6198 154.737 78.1691C154.312 77.7184 153.974 77.1768 153.723 76.5441C153.48 75.9114 153.359 75.2138 153.359 74.4511ZM162.017 74.4511C162.017 73.8011 161.917 73.2118 161.718 72.6831C161.518 72.1544 161.245 71.7038 160.899 71.3311C160.552 70.9498 160.145 70.6594 159.677 70.4601C159.209 70.2521 158.706 70.1481 158.169 70.1481C157.631 70.1481 157.129 70.2521 156.661 70.4601C156.193 70.6594 155.785 70.9498 155.439 71.3311C155.092 71.7038 154.819 72.1544 154.62 72.6831C154.42 73.2118 154.321 73.8011 154.321 74.4511C154.321 75.1011 154.42 75.6904 154.62 76.2191C154.819 76.7478 155.092 77.2028 155.439 77.5841C155.785 77.9568 156.193 78.2471 156.661 78.4551C157.129 78.6544 157.631 78.7541 158.169 78.7541C158.706 78.7541 159.209 78.6544 159.677 78.4551C160.145 78.2471 160.552 77.9568 160.899 77.5841C161.245 77.2028 161.518 76.7478 161.718 76.2191C161.917 75.6904 162.017 75.1011 162.017 74.4511Z" fill="white"/>
<path d="M45.7915 99.7227H41.3155L40.3075 102.147H39.4075L43.2595 93.1467H43.8595L47.7115 102.147H46.8115L45.7915 99.7227ZM41.6395 98.9547H45.4675L43.5595 94.3827L41.6395 98.9547ZM60.7642 98.7867V102.147H59.8762V93.1467H63.0562C63.5522 93.1467 63.9962 93.2187 64.3882 93.3627C64.7802 93.5067 65.1122 93.7067 65.3842 93.9627C65.6642 94.2107 65.8762 94.5067 66.0202 94.8507C66.1642 95.1947 66.2362 95.5667 66.2362 95.9667C66.2362 96.3827 66.1602 96.7667 66.0082 97.1187C65.8642 97.4627 65.6522 97.7587 65.3722 98.0067C65.1402 98.2227 64.8602 98.3947 64.5322 98.5227L66.7762 102.147H65.7082L63.6922 98.7507C63.4842 98.7747 63.2682 98.7867 63.0442 98.7867H60.7642ZM63.0562 98.0187C63.4082 98.0187 63.7242 97.9667 64.0042 97.8627C64.2922 97.7587 64.5322 97.6187 64.7242 97.4427C64.9242 97.2587 65.0762 97.0427 65.1802 96.7947C65.2922 96.5387 65.3482 96.2627 65.3482 95.9667C65.3482 95.6707 65.2922 95.3987 65.1802 95.1507C65.0762 94.8947 64.9242 94.6787 64.7242 94.5027C64.5322 94.3187 64.2922 94.1747 64.0042 94.0707C63.7242 93.9667 63.4082 93.9147 63.0562 93.9147H60.7642V98.0187H63.0562ZM86.4781 100.179C86.0941 100.875 85.5661 101.419 84.8941 101.811C84.2301 102.195 83.4781 102.387 82.6381 102.387C82.0061 102.387 81.4181 102.275 80.8741 102.051C80.3381 101.819 79.8701 101.495 79.4701 101.079C79.0701 100.663 78.7541 100.163 78.5221 99.5787C78.2981 98.9947 78.1861 98.3507 78.1861 97.6467C78.1861 96.9427 78.2981 96.2987 78.5221 95.7147C78.7541 95.1307 79.0701 94.6307 79.4701 94.2147C79.8701 93.7987 80.3381 93.4787 80.8741 93.2547C81.4181 93.0227 82.0061 92.9067 82.6381 92.9067C83.4461 92.9067 84.1741 93.0867 84.8221 93.4467C85.4781 93.8067 86.0021 94.3107 86.3941 94.9587L85.6741 95.4267C85.3541 94.8827 84.9261 94.4547 84.3901 94.1427C83.8621 93.8307 83.2781 93.6747 82.6381 93.6747C82.1421 93.6747 81.6781 93.7707 81.2461 93.9627C80.8141 94.1467 80.4341 94.4147 80.1061 94.7667C79.7861 95.1107 79.5341 95.5267 79.3501 96.0147C79.1661 96.5027 79.0741 97.0467 79.0741 97.6467C79.0741 98.2467 79.1661 98.7907 79.3501 99.2787C79.5341 99.7667 79.7861 100.187 80.1061 100.539C80.4341 100.883 80.8141 101.151 81.2461 101.343C81.6781 101.527 82.1421 101.619 82.6381 101.619C83.3181 101.619 83.9341 101.455 84.4861 101.127C85.0381 100.791 85.4741 100.311 85.7941 99.6867L86.4781 100.179ZM100.002 97.0227H105.186V93.1467H106.074V102.147H105.186V97.7907H100.002V102.147H99.1145V93.1467H100.002V97.0227ZM120.12 102.147H119.232V93.1467H120.12V102.147ZM135.595 93.9147H132.439V93.1467H139.639V93.9147H136.483V102.147H135.595V93.9147ZM152.842 101.379H158.194V102.147H151.954V93.1467H158.002V93.9147H152.842V97.1427H157.174V97.9107H152.842V101.379ZM178.24 100.179C177.856 100.875 177.328 101.419 176.656 101.811C175.992 102.195 175.24 102.387 174.4 102.387C173.768 102.387 173.18 102.275 172.636 102.051C172.1 101.819 171.632 101.495 171.232 101.079C170.832 100.663 170.516 100.163 170.284 99.5787C170.06 98.9947 169.948 98.3507 169.948 97.6467C169.948 96.9427 170.06 96.2987 170.284 95.7147C170.516 95.1307 170.832 94.6307 171.232 94.2147C171.632 93.7987 172.1 93.4787 172.636 93.2547C173.18 93.0227 173.768 92.9067 174.4 92.9067C175.208 92.9067 175.936 93.0867 176.584 93.4467C177.24 93.8067 177.764 94.3107 178.156 94.9587L177.436 95.4267C177.116 94.8827 176.688 94.4547 176.152 94.1427C175.624 93.8307 175.04 93.6747 174.4 93.6747C173.904 93.6747 173.44 93.7707 173.008 93.9627C172.576 94.1467 172.196 94.4147 171.868 94.7667C171.548 95.1107 171.296 95.5267 171.112 96.0147C170.928 96.5027 170.836 97.0467 170.836 97.6467C170.836 98.2467 170.928 98.7907 171.112 99.2787C171.296 99.7667 171.548 100.187 171.868 100.539C172.196 100.883 172.576 101.151 173.008 101.343C173.44 101.527 173.904 101.619 174.4 101.619C175.08 101.619 175.696 101.455 176.248 101.127C176.8 100.791 177.236 100.311 177.556 99.6867L178.24 100.179ZM193.192 93.9147H190.036V93.1467H197.236V93.9147H194.08V102.147H193.192V93.9147Z" fill="white"/>
<g clip-path="url(#clip0_154_74)">
<path d="M111.863 20.6274H107.478V34.379H111.863V20.6274Z" fill="white"/>
<path d="M114.633 29.5156V34.8821H105.241C105.241 31.9216 109.452 29.5156 114.633 29.5156Z" fill="white"/>
<path d="M105.241 20.1243H114.633V25.4907C109.452 25.4907 105.241 23.0848 105.241 20.1243Z" fill="white"/>
<path d="M124.024 29.5156C129.205 29.5156 133.415 31.9216 133.415 34.8821H124.024V29.5156Z" fill="white"/>
<path d="M124.024 20.1243H133.415C133.415 23.0848 129.205 25.4907 124.024 25.4907V20.1243Z" fill="white"/>
<path d="M121.62 20.6274H117.037V34.379H121.62V20.6274Z" fill="white"/>
<path d="M135.372 6.87585H139.956V8.88002C139.956 10.3036 138.8 11.4597 137.376 11.4597H130.788C130.788 8.93096 132.843 6.87585 135.372 6.87585Z" fill="url(#paint0_linear_154_74)"/>
<path d="M135.372 13.7516H137.664C137.664 16.2804 135.609 18.3355 133.08 18.3355H130.788C130.788 15.8067 132.843 13.7516 135.372 13.7516Z" fill="white"/>
<path d="M98.7012 6.87585H103.285C105.814 6.87585 107.869 8.93096 107.869 11.4597H101.21C99.8242 11.4597 98.7012 10.3367 98.7012 8.95133V6.87585Z" fill="url(#paint1_linear_154_74)"/>
<path d="M100.993 13.7516H103.285C105.814 13.7516 107.869 15.8067 107.869 18.3355H105.577C103.048 18.3355 100.993 16.2804 100.993 13.7516Z" fill="white"/>
<path d="M131.179 20.6274H126.794V34.379H131.179V20.6274Z" fill="white"/>
<path d="M110.161 4.8894H114.546V15.8907C112.127 15.8907 110.161 13.9273 110.161 11.5055V4.8894Z" fill="white"/>
<path d="M96.6077 0H91.8252V25.6697H96.6077V0Z" fill="white"/>
<path d="M114.544 0H96.6079V4.88946H114.544V0Z" fill="white"/>
<path d="M142.047 0H124.111V4.88946H142.047V0Z" fill="white"/>
<path d="M146.832 0H142.049V25.6697H146.832V0Z" fill="white"/>
<path d="M124.111 4.8894H128.496V11.5055C128.496 13.9247 126.533 15.8907 124.111 15.8907V4.8894Z" fill="white"/>
<path d="M114.546 39.1157V50.117H109.427V44.2344C109.427 41.4102 111.722 39.1157 114.546 39.1157Z" fill="white"/>
<path d="M91.8252 29.3368H96.6077V55.0065C93.9669 55.0065 91.8252 52.8622 91.8252 50.224V29.3368Z" fill="white"/>
<path d="M114.544 50.1169H96.6079V55.0064H114.544V50.1169Z" fill="white"/>
<path d="M142.047 50.1169H124.111V55.0064H142.047V50.1169Z" fill="white"/>
<path d="M142.049 29.3368H146.832V50.224C146.832 52.8648 144.688 55.0065 142.049 55.0065V29.3368Z" fill="white"/>
<path d="M124.111 39.1157C126.935 39.1157 129.229 41.4102 129.229 44.2344V50.117H124.111V39.1157Z" fill="white"/>
<path d="M126.204 52.7144C126.204 52.7144 137.664 50.4225 144.54 41.2548C137.664 43.5467 130.788 38.9628 126.204 52.7144Z" fill="white"/>
<path d="M112.453 52.7144C112.453 52.7144 100.993 50.4225 94.1172 41.2548C100.993 43.5467 107.869 38.9628 112.453 52.7144Z" fill="white"/>
</g>
<defs>
<linearGradient id="paint0_linear_154_74" x1="135.372" y1="6.87585" x2="135.372" y2="11.4597" gradientUnits="userSpaceOnUse">
<stop stop-color="white"/>
<stop offset="0.9999" stop-color="white"/>
<stop offset="1" stop-color="#8A02E4"/>
</linearGradient>
<linearGradient id="paint1_linear_154_74" x1="103.285" y1="6.87585" x2="103.285" y2="11.4597" gradientUnits="userSpaceOnUse">
<stop stop-color="white"/>
<stop offset="0.9999" stop-color="white"/>
<stop offset="1" stop-color="#8A02E4"/>
</linearGradient>
<clipPath id="clip0_154_74">
<rect width="55.0064" height="55.0064" fill="white" transform="translate(91.8252)"/>
</clipPath>
</defs>
</svg>
