<svg width="131" height="106" viewBox="0 0 131 106" fill="none" xmlns="http://www.w3.org/2000/svg">
<path d="M28.2191 99.7022C27.7071 100.63 27.0031 101.356 26.1071 101.878C25.2217 102.39 24.2191 102.646 23.0991 102.646C22.2564 102.646 21.4724 102.497 20.7471 102.198C20.0324 101.889 19.4084 101.457 18.8751 100.902C18.3417 100.348 17.9204 99.6809 17.6111 98.9022C17.3124 98.1236 17.1631 97.2649 17.1631 96.3262C17.1631 95.3876 17.3124 94.5289 17.6111 93.7502C17.9204 92.9716 18.3417 92.3049 18.8751 91.7502C19.4084 91.1956 20.0324 90.7689 20.7471 90.4702C21.4724 90.1609 22.2564 90.0062 23.0991 90.0062C24.1764 90.0062 25.1471 90.2462 26.0111 90.7262C26.8857 91.2062 27.5844 91.8782 28.1071 92.7422L27.1471 93.3663C26.7204 92.6409 26.1497 92.0702 25.4351 91.6542C24.7311 91.2382 23.9524 91.0302 23.0991 91.0302C22.4377 91.0302 21.8191 91.1582 21.2431 91.4142C20.6671 91.6596 20.1604 92.0169 19.7231 92.4862C19.2964 92.9449 18.9604 93.4996 18.7151 94.1502C18.4697 94.8009 18.3471 95.5262 18.3471 96.3262C18.3471 97.1262 18.4697 97.8516 18.7151 98.5022C18.9604 99.1529 19.2964 99.7129 19.7231 100.182C20.1604 100.641 20.6671 100.998 21.2431 101.254C21.8191 101.5 22.4377 101.622 23.0991 101.622C24.0057 101.622 24.8271 101.404 25.5631 100.966C26.2991 100.518 26.8804 99.8782 27.3071 99.0462L28.2191 99.7022ZM42.5849 95.4942H49.4969V90.3262H50.6809V102.326H49.4969V96.5182H42.5849V102.326H41.4009V90.3262H42.5849V95.4942ZM65.7412 102.326H64.5572V90.3262H65.7412V102.326ZM80.8037 95.4942H87.7157V90.3262H88.8997V102.326H87.7157V96.5182H80.8037V102.326H79.6197V90.3262H80.8037V95.4942ZM101.976 96.3262C101.976 95.3876 102.125 94.5289 102.424 93.7502C102.733 92.9716 103.149 92.3049 103.672 91.7502C104.205 91.1956 104.829 90.7689 105.544 90.4702C106.269 90.1609 107.053 90.0062 107.896 90.0062C108.739 90.0062 109.517 90.1609 110.232 90.4702C110.957 90.7689 111.581 91.1956 112.104 91.7502C112.637 92.3049 113.053 92.9716 113.352 93.7502C113.661 94.5289 113.816 95.3876 113.816 96.3262C113.816 97.2649 113.661 98.1236 113.352 98.9022C113.053 99.6809 112.637 100.348 112.104 100.902C111.581 101.457 110.957 101.889 110.232 102.198C109.517 102.497 108.739 102.646 107.896 102.646C107.053 102.646 106.269 102.497 105.544 102.198C104.829 101.889 104.205 101.457 103.672 100.902C103.149 100.348 102.733 99.6809 102.424 98.9022C102.125 98.1236 101.976 97.2649 101.976 96.3262ZM112.632 96.3262C112.632 95.5262 112.509 94.8009 112.264 94.1502C112.019 93.4996 111.683 92.9449 111.256 92.4862C110.829 92.0169 110.328 91.6596 109.752 91.4142C109.176 91.1582 108.557 91.0302 107.896 91.0302C107.235 91.0302 106.616 91.1582 106.04 91.4142C105.464 91.6596 104.963 92.0169 104.536 92.4862C104.109 92.9449 103.773 93.4996 103.528 94.1502C103.283 94.8009 103.16 95.5262 103.16 96.3262C103.16 97.1262 103.283 97.8516 103.528 98.5022C103.773 99.1529 104.109 99.7129 104.536 100.182C104.963 100.641 105.464 100.998 106.04 101.254C106.616 101.5 107.235 101.622 107.896 101.622C108.557 101.622 109.176 101.5 109.752 101.254C110.328 100.998 110.829 100.641 111.256 100.182C111.683 99.7129 112.019 99.1529 112.264 98.5022C112.509 97.8516 112.632 97.1262 112.632 96.3262Z" fill="white"/>
<g filter="url(#filter0_d_154_62)">
<g clip-path="url(#clip0_154_62)">
<rect width="73.9214" height="73.9214" transform="translate(28.0713)" fill="url(#paint0_linear_154_62)"/>
<path d="M76.582 53.131C76.582 53.131 91.0198 49.8969 99.6825 36.9607C91.0198 40.1948 82.3571 33.7266 76.582 53.131Z" fill="white"/>
<path d="M55.7918 53.131C55.7918 53.131 39.9103 49.8969 30.3813 36.9607C39.9103 40.1948 49.4392 33.7266 55.7918 53.131Z" fill="white"/>
<path d="M76.582 53.2593C82.9548 53.2593 88.1323 60.968 88.1323 70.4563V90.22H76.582V53.2593Z" fill="white"/>
<path d="M55.7919 53.1311V90.0918H44.2417V70.3281C44.2417 60.8398 49.4192 53.1311 55.7919 53.1311Z" fill="white"/>
<path d="M93.7149 9.24023H97.6612C97.6612 13.5943 94.1227 17.1329 89.7686 17.1329H85.8223C85.8223 12.7788 89.3608 9.24023 93.7149 9.24023Z" fill="white"/>
<path d="M35.0015 9.24023H38.9478C43.3019 9.24023 46.8404 12.7788 46.8404 17.1329H42.8941C38.54 17.1329 35.0015 13.5943 35.0015 9.24023Z" fill="white"/>
</g>
</g>
<defs>
<filter id="filter0_d_154_62" x="24.0713" y="0" width="81.9214" height="81.9214" filterUnits="userSpaceOnUse" color-interpolation-filters="sRGB">
<feFlood flood-opacity="0" result="BackgroundImageFix"/>
<feColorMatrix in="SourceAlpha" type="matrix" values="0 0 0 0 0 0 0 0 0 0 0 0 0 0 0 0 0 0 127 0" result="hardAlpha"/>
<feOffset dy="4"/>
<feGaussianBlur stdDeviation="2"/>
<feComposite in2="hardAlpha" operator="out"/>
<feColorMatrix type="matrix" values="0 0 0 0 0 0 0 0 0 0 0 0 0 0 0 0 0 0 0.25 0"/>
<feBlend mode="normal" in2="BackgroundImageFix" result="effect1_dropShadow_154_62"/>
<feBlend mode="normal" in="SourceGraphic" in2="effect1_dropShadow_154_62" result="shape"/>
</filter>
<linearGradient id="paint0_linear_154_62" x1="36.9607" y1="0" x2="36.9607" y2="73.9214" gradientUnits="userSpaceOnUse">
<stop stop-color="white" stop-opacity="0"/>
<stop offset="1" stop-color="#999999" stop-opacity="0"/>
</linearGradient>
<clipPath id="clip0_154_62">
<rect width="73.9214" height="73.9214" fill="white" transform="translate(28.0713)"/>
</clipPath>
</defs>
</svg>
