<svg width="221" height="97" viewBox="0 0 221 97" fill="none" xmlns="http://www.w3.org/2000/svg">
<path d="M77.2037 73.2991C76.7877 74.0531 76.2157 74.6424 75.4877 75.0671C74.7684 75.4831 73.9537 75.6911 73.0437 75.6911C72.3591 75.6911 71.7221 75.5698 71.1327 75.3271C70.5521 75.0758 70.0451 74.7248 69.6117 74.2741C69.1784 73.8234 68.8361 73.2818 68.5847 72.6491C68.3421 72.0164 68.2207 71.3188 68.2207 70.5561C68.2207 69.7934 68.3421 69.0958 68.5847 68.4631C68.8361 67.8304 69.1784 67.2888 69.6117 66.8381C70.0451 66.3874 70.5521 66.0408 71.1327 65.7981C71.7221 65.5468 72.3591 65.4211 73.0437 65.4211C73.9191 65.4211 74.7077 65.6161 75.4097 66.0061C76.1204 66.3961 76.6881 66.9421 77.1127 67.6441L76.3327 68.1511C75.9861 67.5618 75.5224 67.0981 74.9417 66.7601C74.3697 66.4221 73.7371 66.2531 73.0437 66.2531C72.5064 66.2531 72.0037 66.3571 71.5357 66.5651C71.0677 66.7644 70.6561 67.0548 70.3007 67.4361C69.9541 67.8088 69.6811 68.2594 69.4817 68.7881C69.2824 69.3168 69.1827 69.9061 69.1827 70.5561C69.1827 71.2061 69.2824 71.7954 69.4817 72.3241C69.6811 72.8528 69.9541 73.3078 70.3007 73.6891C70.6561 74.0618 71.0677 74.3521 71.5357 74.5601C72.0037 74.7594 72.5064 74.8591 73.0437 74.8591C73.7804 74.8591 74.4477 74.6814 75.0457 74.3261C75.6437 73.9621 76.1161 73.4421 76.4627 72.7661L77.2037 73.2991ZM90.9385 69.8801H96.5545V65.6811H97.5165V75.4311H96.5545V70.7121H90.9385V75.4311H89.9765V65.6811H90.9385V69.8801ZM111.815 75.4311H110.853V65.6811H111.815V75.4311ZM126.116 69.8801H131.732V65.6811H132.694V75.4311H131.732V70.7121H126.116V75.4311H125.154V65.6811H126.116V69.8801ZM145.381 70.5561C145.381 69.7934 145.503 69.0958 145.745 68.4631C145.997 67.8304 146.335 67.2888 146.759 66.8381C147.193 66.3874 147.7 66.0408 148.28 65.7981C148.87 65.5468 149.507 65.4211 150.191 65.4211C150.876 65.4211 151.509 65.5468 152.089 65.7981C152.679 66.0408 153.186 66.3874 153.61 66.8381C154.044 67.2888 154.382 67.8304 154.624 68.4631C154.876 69.0958 155.001 69.7934 155.001 70.5561C155.001 71.3188 154.876 72.0164 154.624 72.6491C154.382 73.2818 154.044 73.8234 153.61 74.2741C153.186 74.7248 152.679 75.0758 152.089 75.3271C151.509 75.5698 150.876 75.6911 150.191 75.6911C149.507 75.6911 148.87 75.5698 148.28 75.3271C147.7 75.0758 147.193 74.7248 146.759 74.2741C146.335 73.8234 145.997 73.2818 145.745 72.6491C145.503 72.0164 145.381 71.3188 145.381 70.5561ZM154.039 70.5561C154.039 69.9061 153.94 69.3168 153.74 68.7881C153.541 68.2594 153.268 67.8088 152.921 67.4361C152.575 67.0548 152.167 66.7644 151.699 66.5651C151.231 66.3571 150.729 66.2531 150.191 66.2531C149.654 66.2531 149.151 66.3571 148.683 66.5651C148.215 66.7644 147.808 67.0548 147.461 67.4361C147.115 67.8088 146.842 68.2594 146.642 68.7881C146.443 69.3168 146.343 69.9061 146.343 70.5561C146.343 71.2061 146.443 71.7954 146.642 72.3241C146.842 72.8528 147.115 73.3078 147.461 73.6891C147.808 74.0618 148.215 74.3521 148.683 74.5601C149.151 74.7594 149.654 74.8591 150.191 74.8591C150.729 74.8591 151.231 74.7594 151.699 74.5601C152.167 74.3521 152.575 74.0618 152.921 73.6891C153.268 73.3078 153.541 72.8528 153.74 72.3241C153.94 71.7954 154.039 71.2061 154.039 70.5561Z" fill="white"/>
<path d="M37.8938 94.3058H33.4178L32.4098 96.7298H31.5098L35.3618 87.7298H35.9618L39.8138 96.7298H38.9138L37.8938 94.3058ZM33.7418 93.5378H37.5698L35.6618 88.9658L33.7418 93.5378ZM52.8664 93.3698V96.7298H51.9784V87.7298H55.1584C55.6544 87.7298 56.0984 87.8018 56.4904 87.9458C56.8824 88.0898 57.2144 88.2898 57.4864 88.5458C57.7664 88.7938 57.9784 89.0898 58.1224 89.4338C58.2664 89.7778 58.3384 90.1498 58.3384 90.5498C58.3384 90.9658 58.2624 91.3498 58.1104 91.7018C57.9664 92.0458 57.7544 92.3418 57.4744 92.5898C57.2424 92.8058 56.9624 92.9778 56.6344 93.1058L58.8784 96.7298H57.8104L55.7944 93.3338C55.5864 93.3578 55.3704 93.3698 55.1464 93.3698H52.8664ZM55.1584 92.6018C55.5104 92.6018 55.8264 92.5498 56.1064 92.4458C56.3944 92.3418 56.6344 92.2018 56.8264 92.0258C57.0264 91.8418 57.1784 91.6258 57.2824 91.3778C57.3944 91.1218 57.4504 90.8458 57.4504 90.5498C57.4504 90.2538 57.3944 89.9818 57.2824 89.7338C57.1784 89.4778 57.0264 89.2618 56.8264 89.0858C56.6344 88.9018 56.3944 88.7578 56.1064 88.6538C55.8264 88.5498 55.5104 88.4978 55.1584 88.4978H52.8664V92.6018H55.1584ZM78.5803 94.7618C78.1963 95.4578 77.6683 96.0018 76.9963 96.3938C76.3323 96.7778 75.5803 96.9698 74.7403 96.9698C74.1083 96.9698 73.5203 96.8578 72.9763 96.6338C72.4403 96.4018 71.9723 96.0778 71.5723 95.6618C71.1723 95.2458 70.8563 94.7458 70.6243 94.1618C70.4003 93.5778 70.2883 92.9338 70.2883 92.2298C70.2883 91.5258 70.4003 90.8818 70.6243 90.2978C70.8563 89.7138 71.1723 89.2138 71.5723 88.7978C71.9723 88.3818 72.4403 88.0618 72.9763 87.8378C73.5203 87.6058 74.1083 87.4898 74.7403 87.4898C75.5483 87.4898 76.2763 87.6698 76.9243 88.0298C77.5803 88.3898 78.1043 88.8938 78.4963 89.5418L77.7763 90.0098C77.4563 89.4658 77.0283 89.0378 76.4923 88.7258C75.9643 88.4138 75.3803 88.2578 74.7403 88.2578C74.2443 88.2578 73.7803 88.3538 73.3483 88.5458C72.9163 88.7298 72.5363 88.9978 72.2083 89.3498C71.8883 89.6938 71.6363 90.1098 71.4523 90.5978C71.2683 91.0858 71.1763 91.6298 71.1763 92.2298C71.1763 92.8298 71.2683 93.3738 71.4523 93.8618C71.6363 94.3498 71.8883 94.7698 72.2083 95.1218C72.5363 95.4658 72.9163 95.7338 73.3483 95.9258C73.7803 96.1098 74.2443 96.2018 74.7403 96.2018C75.4203 96.2018 76.0363 96.0378 76.5883 95.7098C77.1403 95.3738 77.5763 94.8938 77.8963 94.2698L78.5803 94.7618ZM92.1047 91.6058H97.2887V87.7298H98.1767V96.7298H97.2887V92.3738H92.1047V96.7298H91.2167V87.7298H92.1047V91.6058ZM112.222 96.7298H111.334V87.7298H112.222V96.7298ZM127.697 88.4978H124.541V87.7298H131.741V88.4978H128.585V96.7298H127.697V88.4978ZM144.945 95.9618H150.297V96.7298H144.057V87.7298H150.105V88.4978H144.945V91.7258H149.277V92.4938H144.945V95.9618ZM170.342 94.7618C169.958 95.4578 169.43 96.0018 168.758 96.3938C168.094 96.7778 167.342 96.9698 166.502 96.9698C165.87 96.9698 165.282 96.8578 164.738 96.6338C164.202 96.4018 163.734 96.0778 163.334 95.6618C162.934 95.2458 162.618 94.7458 162.386 94.1618C162.162 93.5778 162.05 92.9338 162.05 92.2298C162.05 91.5258 162.162 90.8818 162.386 90.2978C162.618 89.7138 162.934 89.2138 163.334 88.7978C163.734 88.3818 164.202 88.0618 164.738 87.8378C165.282 87.6058 165.87 87.4898 166.502 87.4898C167.31 87.4898 168.038 87.6698 168.686 88.0298C169.342 88.3898 169.866 88.8938 170.258 89.5418L169.538 90.0098C169.218 89.4658 168.79 89.0378 168.254 88.7258C167.726 88.4138 167.142 88.2578 166.502 88.2578C166.006 88.2578 165.542 88.3538 165.11 88.5458C164.678 88.7298 164.298 88.9978 163.97 89.3498C163.65 89.6938 163.398 90.1098 163.214 90.5978C163.03 91.0858 162.938 91.6298 162.938 92.2298C162.938 92.8298 163.03 93.3738 163.214 93.8618C163.398 94.3498 163.65 94.7698 163.97 95.1218C164.298 95.4658 164.678 95.7338 165.11 95.9258C165.542 96.1098 166.006 96.2018 166.502 96.2018C167.182 96.2018 167.798 96.0378 168.35 95.7098C168.902 95.3738 169.338 94.8938 169.658 94.2698L170.342 94.7618ZM185.294 88.4978H182.138V87.7298H189.338V88.4978H186.182V96.7298H185.294V88.4978Z" fill="white"/>
<g clip-path="url(#clip0_154_74)">
<path d="M104.401 19.2515H100.309V32.0858H104.401V19.2515Z" fill="white"/>
<path d="M106.987 27.5468V32.5553H98.2217C98.2217 29.7922 102.151 27.5468 106.987 27.5468Z" fill="white"/>
<path d="M98.2217 18.7819H106.987V23.7904C102.151 23.7904 98.2217 21.5449 98.2217 18.7819Z" fill="white"/>
<path d="M115.751 27.5468C120.587 27.5468 124.516 29.7922 124.516 32.5553H115.751V27.5468Z" fill="white"/>
<path d="M115.751 18.7819H124.516C124.516 21.5449 120.587 23.7904 115.751 23.7904V18.7819Z" fill="white"/>
<path d="M113.508 19.2515H109.23V32.0858H113.508V19.2515Z" fill="white"/>
<path d="M126.342 6.41711H130.62V8.28759C130.62 9.61618 129.541 10.6952 128.213 10.6952H122.064C122.064 8.33513 123.982 6.41711 126.342 6.41711Z" fill="url(#paint0_linear_154_74)"/>
<path d="M126.342 12.8344H128.481C128.481 15.1944 126.563 17.1125 124.203 17.1125H122.064C122.064 14.7524 123.982 12.8344 126.342 12.8344Z" fill="white"/>
<path d="M92.1172 6.41711H96.3953C98.7554 6.41711 100.673 8.33513 100.673 10.6952H94.4583C93.1653 10.6952 92.1172 9.64708 92.1172 8.35414V6.41711Z" fill="url(#paint1_linear_154_74)"/>
<path d="M94.2563 12.8344H96.3954C98.7555 12.8344 100.673 14.7524 100.673 17.1125H98.5344C96.1744 17.1125 94.2563 15.1944 94.2563 12.8344Z" fill="white"/>
<path d="M122.429 19.2515H118.336V32.0858H122.429V19.2515Z" fill="white"/>
<path d="M102.812 4.56335H106.905V14.8308C104.647 14.8308 102.812 12.9983 102.812 10.7381V4.56335Z" fill="white"/>
<path d="M90.1637 0H85.7002V23.9574H90.1637V0Z" fill="white"/>
<path d="M106.903 0H90.1636V4.56331H106.903V0Z" fill="white"/>
<path d="M132.572 0H115.833V4.56331H132.572V0Z" fill="white"/>
<path d="M137.037 0H132.574V23.9574H137.037V0Z" fill="white"/>
<path d="M115.833 4.56335H119.925V10.7381C119.925 12.996 118.093 14.8308 115.833 14.8308V4.56335Z" fill="white"/>
<path d="M106.905 36.5065V46.7739H102.128V41.2837C102.128 38.6479 104.269 36.5065 106.905 36.5065Z" fill="white"/>
<path d="M85.7002 27.3799H90.1637V51.3372C87.699 51.3372 85.7002 49.336 85.7002 46.8738V27.3799Z" fill="white"/>
<path d="M106.903 46.7739H90.1636V51.3372H106.903V46.7739Z" fill="white"/>
<path d="M132.572 46.7739H115.833V51.3372H132.572V46.7739Z" fill="white"/>
<path d="M132.574 27.3799H137.037V46.8738C137.037 49.3384 135.036 51.3372 132.574 51.3372V27.3799Z" fill="white"/>
<path d="M115.833 36.5065C118.468 36.5065 120.61 38.6479 120.61 41.2837V46.7739H115.833V36.5065Z" fill="white"/>
<path d="M117.786 49.1982C117.786 49.1982 128.481 47.0591 134.899 38.5029C128.481 40.642 122.064 36.3639 117.786 49.1982Z" fill="white"/>
<path d="M104.952 49.1982C104.952 49.1982 94.2565 47.0591 87.8394 38.5029C94.2565 40.642 100.674 36.3639 104.952 49.1982Z" fill="white"/>
</g>
<defs>
<linearGradient id="paint0_linear_154_74" x1="126.342" y1="6.41711" x2="126.342" y2="10.6952" gradientUnits="userSpaceOnUse">
<stop stop-color="white"/>
<stop offset="0.9999" stop-color="white"/>
<stop offset="1" stop-color="#8A02E4"/>
</linearGradient>
<linearGradient id="paint1_linear_154_74" x1="96.3953" y1="6.41711" x2="96.3953" y2="10.6952" gradientUnits="userSpaceOnUse">
<stop stop-color="white"/>
<stop offset="0.9999" stop-color="white"/>
<stop offset="1" stop-color="#8A02E4"/>
</linearGradient>
<clipPath id="clip0_154_74">
<rect width="51.3372" height="51.3372" fill="white" transform="translate(85.7002)"/>
</clipPath>
</defs>
</svg>
